<?xml version="1.0" encoding="UTF-8" standalone="no"?>
<!-- Created with Inkscape (http://www.inkscape.org/) -->

<svg
   width="772.69141"
   height="55.973789"
   viewBox="0 0 204.44126 14.809732"
   version="1.1"
   id="svg1"
   xml:space="preserve"
   xmlns="http://www.w3.org/2000/svg"
   xmlns:svg="http://www.w3.org/2000/svg"><defs
     id="defs1" /><g
     id="layer1"
     transform="translate(-12.521443,-42.329243)"><rect
       style="display:none;fill:#213123;fill-opacity:0.74902;fill-rule:evenodd;stroke-width:0.233595;stroke-miterlimit:3"
       id="rect1"
       width="390.95264"
       height="36.654034"
       x="-162.63089"
       y="31.367945" /><g
       id="g2"
       transform="matrix(0.63697767,0,0,0.63697767,6.6132257,18.000926)"><g
         id="g10"><path
           style="color:#000000;fill:#ffffff;fill-rule:evenodd;stroke-miterlimit:3;-inkscape-stroke:none"
           d="m 21.060547,38.382812 c -6.489573,0 -11.7851564,5.162085 -11.7851564,11.53125 0,6.369166 5.2955834,11.529297 11.7851564,11.529297 6.489573,10e-7 11.785156,-5.160131 11.785156,-11.529297 0,-6.369165 -5.295583,-11.531251 -11.785156,-11.53125 z m 0,1.585938 c 5.651482,-10e-7 10.197266,4.454422 10.197265,9.945312 0,5.490891 -4.545783,9.943361 -10.197265,9.94336 -5.651482,0 -10.199219,-4.452469 -10.199219,-9.94336 0,-5.49089 4.547737,-9.945312 10.199219,-9.945312 z"
           id="path6-2" /><g
           id="text7"
           style="font-weight:600;font-size:11.416px;font-family:Poppins;-inkscape-font-specification:'Poppins Semi-Bold';text-align:center;text-orientation:upright;text-anchor:middle;fill:#ffffff;fill-rule:evenodd;stroke-width:1.28431;stroke-miterlimit:3"
           transform="matrix(0.93990545,0,0,1.0639368,-0.06359937,0.75714163)"
           aria-label="21+"><path
             style="font-weight:normal;font-family:'Ny Carlsberg Display';-inkscape-font-specification:'Ny Carlsberg Display'"
             d="m 20.267617,50.266186 0.525136,-1.073104 h -4.281 c 0.2854,-1.906472 3.984184,-2.363112 3.984184,-4.771888 0,-1.267176 -0.879032,-2.283201 -2.637096,-2.283201 -0.936112,0 -1.837976,0.342481 -2.557184,1.004609 l 0.525136,0.91328 c 0.582216,-0.593632 1.1416,-0.890448 1.88364,-0.890448 0.890448,0 1.427,0.547968 1.427,1.347088 0,1.9978 -4.235336,2.089128 -3.88144,5.753664 z m 3.059493,0 h 1.31284 v -8.04828 h -0.947528 c -0.17124,0.981776 -0.536552,1.244344 -1.917888,1.232928 v 0.890448 h 1.552576 z"
             id="path8" /><path
             style="font-weight:normal;font-size:8.56201px;font-family:'Ny Carlsberg Display';-inkscape-font-specification:'Ny Carlsberg Display'"
             d="m 28.264543,48.321069 h 0.770581 v -1.678154 h 1.66103 v -0.736333 h -1.66103 v -1.678154 h -0.770581 v 1.678154 h -1.66103 v 0.736333 h 1.66103 z"
             id="path9" /></g></g><g
         id="g9"><path
           style="color:#000000;fill:#ffffff;fill-rule:evenodd;stroke-miterlimit:3;-inkscape-stroke:none"
           d="m 49.089844,38.193359 c -6.489573,0 -11.785157,5.162085 -11.785157,11.53125 0,6.369166 5.295584,11.531251 11.785157,11.53125 6.489573,0 11.785156,-5.162084 11.785156,-11.53125 0,-6.369165 -5.295583,-11.53125 -11.785156,-11.53125 z m 0,1.587891 c 5.651482,0 10.199218,4.452469 10.199218,9.943359 0,5.490891 -4.547736,9.94336 -10.199218,9.94336 -5.651482,0 -10.197266,-4.452469 -10.197266,-9.94336 0,-5.49089 4.545784,-9.94336 10.197266,-9.943359 z"
           id="path6" /><path
           id="rect2"
           style="fill:#ffffff;stroke-width:0.174021;stroke-miterlimit:3"
           d="m 44.516662,44.740421 -0.0279,0.05116 h -0.461471 v 0.844909 l -1.046964,1.916679 h -1.525489 v 1.127063 h 0.909506 l -0.834575,1.528072 h -0.330212 v 4.500501 h 3.118156 v -0.58291 h 2.693375 1.90376 0.3514 1.90376 2.693375 v 0.58291 h 3.118156 v -4.500501 h -0.330212 l -0.834575,-1.528072 h 0.909506 V 47.553169 H 55.200764 L 54.1538,45.63649 v -0.844909 h -0.461471 l -0.02791,-0.05116 -0.06149,0.05116 h -4.346505 -0.331762 -4.346505 z m 0.684713,0.995805 h 3.723287 0.331762 3.723287 l 1.300179,2.380733 h -2.335258 -2.437577 -0.240812 -0.3514 -0.240812 -2.437577 -2.335258 z m -2.442745,4.490165 h 2.179195 l 0.01964,1.506885 -2.198832,0.02377 z m 10.484631,0 h 2.179195 v 1.530656 l -2.198832,-0.02377 z m -8.925553,2.231905 h 1.153418 v 0.584977 h -1.153418 z m 8.392252,0 h 1.153418 v 0.584977 H 52.70996 Z" /><path
           id="rect7"
           style="fill:#ffffff;fill-rule:evenodd;stroke-width:1.97461;stroke-miterlimit:3"
           transform="matrix(0.6794499,0.7337219,-0.60067477,0.79949348,0,0)"
           d="m 60.294056,-2.9313228 h 20.141659 v 1.5970163 l -20.473042,0.036934 z" /></g></g><g
       id="g1"
       transform="matrix(1.1070246,0,0,1.1070246,-25.563542,-5.2959596)"><path
         style="font-weight:bold;font-size:12.6408px;font-family:'Ny Carlsberg Display';-inkscape-font-specification:'Ny Carlsberg Display Bold';text-align:center;text-orientation:upright;text-anchor:middle;fill:#ffffff;fill-rule:evenodd;stroke-width:1.57001;stroke-miterlimit:3"
         d="m 70.817805,53.651691 h 1.744431 l 0.252816,-1.769712 h 1.087108 v -1.618022 h -0.859574 l 0.303379,-2.073091 h 1.074468 V 46.572843 H 73.5735 l 0.252816,-1.769712 h -1.744431 l -0.252816,1.769712 h -1.41577 l 0.252817,-1.769712 h -1.744431 l -0.252816,1.769712 H 67.58176 v 1.618023 h 0.859575 l -0.30338,2.073091 h -1.074468 v 1.618022 h 0.846934 l -0.252816,1.769712 h 1.74443 l 0.252816,-1.769712 h 1.41577 z m -0.63204,-5.460825 h 1.41577 l -0.303379,2.073091 h -1.41577 z m 11.831778,2.957947 c -0.505632,0.644681 -1.125031,0.985982 -1.984606,0.985982 -1.491614,0 -2.325907,-1.200876 -2.325907,-2.907384 0,-1.769712 0.897497,-2.907384 2.325907,-2.907384 0.834293,0 1.403129,0.442428 1.73179,0.897497 l 1.125031,-1.592741 c -0.733166,-0.669962 -1.693867,-0.998623 -2.84418,-0.998623 -2.69249,0 -4.664455,1.946683 -4.664455,4.639174 0,2.743053 1.681226,4.563329 4.512765,4.563329 1.26408,0 2.401753,-0.46771 3.109637,-1.238799 z m 8.090106,-4.677096 v -1.668586 h -5.865332 v 8.84856 h 5.865332 V 51.983106 H 86.49238 V 49.84681 h 3.413016 V 48.279351 H 86.49238 v -1.807634 z m 7.243191,7.179974 v -1.693867 h -3.286608 v -7.154693 h -2.250063 v 8.84856 z m 6.99037,-7.179974 v -1.668586 h -5.865334 v 8.84856 h 5.865334 v -1.668585 h -3.61527 V 49.84681 h 3.41301 v -1.567459 h -3.41301 v -1.807634 z m 1.70652,7.179974 h 3.61526 c 2.42704,0 3.56471,-1.125031 3.56471,-2.5408 0,-1.188236 -0.66996,-1.794994 -1.68123,-2.04781 v -0.01264 c 0.97335,-0.31602 1.55482,-1.036546 1.55482,-1.934042 0,-1.377848 -1.11239,-2.313267 -3.40037,-2.313267 h -3.65319 z m 2.25006,-5.347058 v -1.858198 h 1.31464 c 0.87222,0 1.20088,0.404506 1.20088,0.922779 0,0.518272 -0.3413,0.935419 -1.21352,0.935419 z m 0,3.703754 v -2.136295 h 1.25144 c 0.99862,0 1.35256,0.455069 1.35256,1.061827 0,0.606759 -0.36658,1.074468 -1.3652,1.074468 z m 14.08185,1.643304 -2.23742,-3.514142 c 1.04919,-0.341302 1.84556,-1.251439 1.84556,-2.502879 0,-2.047809 -1.33993,-2.831539 -3.80488,-2.831539 h -3.31189 v 8.84856 h 2.25006 v -3.084355 h 0.87221 l 1.74443,3.084355 z m -5.25857,-4.702377 v -2.477597 h 0.98598 c 1.02391,0 1.55482,0.467709 1.55482,1.238798 0,0.771089 -0.53091,1.238799 -1.55482,1.238799 z m 14.04393,4.702377 -2.80626,-8.84856 H 125.464 l -2.79362,8.84856 h 2.35119 l 0.42979,-1.706508 h 2.78097 l 0.46771,1.706508 z m -4.36108,-7.040925 0.99863,3.741677 h -1.94669 z m 8.31766,7.040925 v -7.154693 h 2.40175 v -1.693867 h -7.05357 v 1.693867 h 2.40175 v 7.154693 z m 9.40474,-7.179974 v -1.668586 h -5.86533 v 8.84856 h 5.86533 v -1.668585 h -3.61527 V 49.84681 h 3.41302 v -1.567459 h -3.41302 v -1.807634 z"
         id="text9"
         transform="scale(0.98898968,1.0111329)"
         aria-label="#CELEBRATE" /><path
         style="font-size:12.6177px;font-family:'Segoe UI';-inkscape-font-specification:'Segoe UI';text-align:center;text-orientation:upright;text-anchor:middle;fill:#ffffff;fill-rule:evenodd;stroke-width:1.56715;stroke-miterlimit:3"
         d="m 153.369,53.582832 h -1.23219 l -1.47864,-2.476716 q -0.20331,-0.345015 -0.3943,-0.585294 -0.19099,-0.246439 -0.39431,-0.400464 -0.19715,-0.154025 -0.43126,-0.221795 -0.22796,-0.07393 -0.51753,-0.07393 h -0.85021 v 3.758201 h -1.03505 V 44.74798 h 2.6369 q 0.57914,0 1.06585,0.147864 0.49288,0.141703 0.85022,0.43743 0.3635,0.295727 0.56681,0.739318 0.20331,0.43743 0.20331,1.028885 0,0.462074 -0.1417,0.850216 -0.13554,0.381981 -0.3943,0.683869 -0.2526,0.301889 -0.6161,0.517523 -0.35734,0.209474 -0.80709,0.326533 v 0.02464 q 0.22179,0.09857 0.38198,0.227956 0.16635,0.12322 0.31421,0.295727 0.14786,0.172508 0.28957,0.394303 0.14786,0.215635 0.32653,0.505201 z m -5.29844,-7.898384 v 3.203713 h 1.4047 q 0.38814,0 0.71468,-0.117059 0.33269,-0.117059 0.57297,-0.332693 0.24028,-0.221796 0.37582,-0.536006 0.13554,-0.320371 0.13554,-0.714674 0,-0.708514 -0.46207,-1.102817 -0.45592,-0.400464 -1.32462,-0.400464 z m 11.19451,7.898384 h -4.68235 v -8.834854 h 4.4852 v 0.93647 h -3.45016 v 2.93879 h 3.19139 v 0.930309 h -3.19139 v 3.092815 h 3.64731 z m 1.28764,-0.357337 V 52.00562 q 0.20948,0.184829 0.49904,0.332693 0.29573,0.147864 0.6161,0.252601 0.32653,0.09858 0.65307,0.154024 0.32653,0.05545 0.60377,0.05545 0.95496,0 1.42319,-0.351176 0.4744,-0.357337 0.4744,-1.022724 0,-0.357337 -0.16019,-0.622259 -0.15402,-0.264923 -0.43127,-0.480557 -0.27724,-0.221796 -0.65922,-0.418947 -0.37582,-0.203313 -0.81325,-0.425108 -0.46208,-0.234118 -0.86254,-0.474396 -0.40047,-0.240279 -0.69619,-0.529845 -0.29573,-0.289567 -0.46824,-0.653065 -0.16634,-0.369659 -0.16634,-0.862538 0,-0.603776 0.26492,-1.047367 0.26492,-0.449752 0.69619,-0.739319 0.43127,-0.289566 0.9796,-0.431269 0.55448,-0.141702 1.12746,-0.141702 1.30613,0 1.90374,0.31421 v 1.164426 q -0.78244,-0.542167 -2.00848,-0.542167 -0.33885,0 -0.67771,0.07393 -0.33885,0.06777 -0.60378,0.227957 -0.26492,0.160185 -0.43126,0.412786 -0.16635,0.2526 -0.16635,0.616098 0,0.338855 0.12322,0.585294 0.12938,0.24644 0.37582,0.449752 0.24644,0.203313 0.59761,0.394303 0.35734,0.190991 0.81942,0.418947 0.47439,0.234118 0.8995,0.492879 0.42511,0.258762 0.74548,0.572972 0.32037,0.31421 0.5052,0.696191 0.19099,0.381981 0.19099,0.87486 0,0.653065 -0.25876,1.108978 -0.2526,0.449752 -0.69003,0.733157 -0.43127,0.283406 -0.99808,0.406625 -0.56681,0.129381 -1.19523,0.129381 -0.20948,0 -0.51753,-0.03697 -0.30804,-0.03081 -0.62842,-0.09858 -0.32037,-0.06161 -0.60993,-0.154024 -0.28341,-0.09858 -0.45592,-0.215635 z m 8.15099,-2.981917 v 3.339254 h -1.03505 v -8.834854 h 2.42743 q 1.41703,0 2.19331,0.690031 0.78245,0.69003 0.78245,1.946871 0,1.256841 -0.8687,2.05777 -0.86254,0.800928 -2.33501,0.800928 z m 0,-4.55913 v 3.62266 h 1.08433 q 1.07201,0 1.63266,-0.486718 0.56681,-0.492879 0.56681,-1.386222 0,-1.74972 -2.07009,-1.74972 z m 9.59266,8.046248 q -1.87911,0 -3.01273,-1.238358 -1.12746,-1.238358 -1.12746,-3.222196 0,-2.131701 1.15211,-3.400864 1.1521,-1.269163 3.13594,-1.269163 1.82981,0 2.94495,1.232197 1.1213,1.232197 1.1213,3.222196 0,2.162506 -1.14594,3.419347 -1.14595,1.256841 -3.06817,1.256841 z m 0.0739,-8.194112 q -1.39239,0 -2.26108,1.004241 -0.8687,1.004241 -0.8687,2.636902 0,1.632662 0.84405,2.630741 0.85022,0.991919 2.2118,0.991919 1.45399,0 2.29188,-0.948792 0.8379,-0.948792 0.8379,-2.655385 0,-1.74972 -0.81325,-2.704673 -0.81325,-0.954953 -2.2426,-0.954953 z m 12.99968,8.046248 h -1.26917 l -4.5468,-7.042007 q -0.17251,-0.264922 -0.28341,-0.554489 h -0.037 q 0.0493,0.283406 0.0493,1.213715 v 6.382781 h -1.03504 v -8.834854 h 1.34309 l 4.42359,6.93111 q 0.27724,0.431269 0.35734,0.591454 h 0.0246 q -0.0616,-0.381981 -0.0616,-1.299968 v -6.222596 h 1.03505 z m 1.90374,-0.357337 V 52.00562 q 0.20947,0.184829 0.49904,0.332693 0.29573,0.147864 0.6161,0.252601 0.32653,0.09858 0.65306,0.154024 0.32654,0.05545 0.60378,0.05545 0.95495,0 1.42319,-0.351176 0.47439,-0.357337 0.47439,-1.022724 0,-0.357337 -0.16018,-0.622259 -0.15403,-0.264923 -0.43127,-0.480557 -0.27725,-0.221796 -0.65923,-0.418947 -0.37582,-0.203313 -0.81325,-0.425108 -0.46207,-0.234118 -0.86253,-0.474396 -0.40047,-0.240279 -0.6962,-0.529845 -0.29572,-0.289567 -0.46823,-0.653065 -0.16635,-0.369659 -0.16635,-0.862538 0,-0.603776 0.26492,-1.047367 0.26493,-0.449752 0.6962,-0.739319 0.43127,-0.289566 0.97959,-0.431269 0.55449,-0.141702 1.12746,-0.141702 1.30613,0 1.90375,0.31421 v 1.164426 q -0.78245,-0.542167 -2.00848,-0.542167 -0.33886,0 -0.67771,0.07393 -0.33886,0.06777 -0.60378,0.227957 -0.26492,0.160185 -0.43127,0.412786 -0.16634,0.2526 -0.16634,0.616098 0,0.338855 0.12322,0.585294 0.12938,0.24644 0.37582,0.449752 0.24644,0.203313 0.59761,0.394303 0.35734,0.190991 0.81941,0.418947 0.4744,0.234118 0.89951,0.492879 0.4251,0.258762 0.74548,0.572972 0.32037,0.31421 0.5052,0.696191 0.19099,0.381981 0.19099,0.87486 0,0.653065 -0.25876,1.108978 -0.2526,0.449752 -0.69003,0.733157 -0.43127,0.283406 -0.99808,0.406625 -0.56682,0.129381 -1.19524,0.129381 -0.20947,0 -0.51752,-0.03697 -0.30805,-0.03081 -0.62842,-0.09858 -0.32037,-0.06161 -0.60994,-0.154024 -0.2834,-0.09858 -0.45591,-0.215635 z m 8.15099,0.357337 h -1.03505 v -8.834854 h 1.03505 z m 2.32269,0 v -8.834854 h 2.51368 q 1.14595,0 1.81749,0.56065 0.67155,0.56065 0.67155,1.460154 0,0.75164 -0.40662,1.306129 -0.40663,0.554488 -1.1213,0.788606 v 0.02464 q 0.89334,0.104737 1.42935,0.677708 0.536,0.566811 0.536,1.478637 0,1.133621 -0.81325,1.835974 -0.81325,0.702352 -2.05161,0.702352 z m 1.03505,-7.898384 v 2.852537 h 1.05969 q 0.85021,0 1.33693,-0.406625 0.48672,-0.412786 0.48672,-1.158266 0,-1.287646 -1.69427,-1.287646 z m 0,3.782846 v 3.179068 h 1.4047 q 0.91183,0 1.41087,-0.431269 0.5052,-0.431269 0.5052,-1.182909 0,-1.56489 -2.1317,-1.56489 z m 10.78172,4.115538 h -4.58377 v -8.834854 h 1.03504 v 7.898384 h 3.54873 z m 6.35813,-8.834854 -2.91414,5.569532 v 3.265322 h -1.03505 v -3.240678 l -2.84021,-5.594176 h 1.17675 l 1.97767,3.992319 q 0.037,0.07393 0.21564,0.542167 h 0.0185 q 0.0616,-0.209474 0.23412,-0.542167 l 2.07009,-3.992319 z"
         id="text9-5"
         transform="scale(0.98718974,1.0129765)"
         aria-label="RESPONSIBLY" /></g></g></svg>
