<svg width="830" height="55" viewBox="0 0 830 55" fill="none" xmlns="http://www.w3.org/2000/svg">
<g clip-path="url(#clip0_3984_1695)">
<path d="M222.05 23.9V17.05H218.55L219.55 9.55005H212.35L211.3 17.05H205.45L206.5 9.55005H199.3L198.25 17.05H193.75V23.9H197.3L196.05 32.6501H191.6V39.5H195.1L194.05 47H201.25L202.3 39.5H208.15L207.1 47H214.35L215.4 39.5H219.9V32.6501H216.35L217.6 23.9H222.05ZM204.5 23.9H210.35L209.1 32.6501H203.25L204.5 23.9ZM245.25 15.95C248.217 15.95 250.6 17.2167 252.4 19.75L257.1 13C254.067 10.2 250.133 8.80005 245.3 8.80005C239.733 8.80005 235.117 10.65 231.45 14.35C227.817 18.05 226 22.7334 226 28.4C226 34.3 227.65 38.9834 230.95 42.4501C234.317 45.9834 238.9 47.75 244.7 47.75C247.267 47.75 249.683 47.2834 251.95 46.35C254.183 45.4167 256.05 44.1334 257.55 42.5L253.45 36.4001C251.283 39.1667 248.55 40.55 245.25 40.55C242.25 40.55 239.883 39.4 238.15 37.1C236.483 34.9 235.65 31.9501 235.65 28.25C235.65 24.5167 236.517 21.5334 238.25 19.3C239.983 17.0667 242.317 15.95 245.25 15.95ZM286.95 16.6V9.55005H262.65V47H286.95V39.9001H272V30.9H286.1V24.25H272V16.6H286.95ZM303.3 39.8V9.55005H294V47H316.9V39.8H303.3ZM345.85 16.6V9.55005H321.55V47H345.85V39.9001H330.9V30.9H345V24.25H330.9V16.6H345.85ZM378.6 12.25C376.167 10.45 372.633 9.55005 368 9.55005H352.9V47H367.85C372.65 47 376.367 45.95 379 43.85C381.4 41.9167 382.6 39.3834 382.6 36.25C382.6 31.65 380.283 28.75 375.65 27.55V27.5C377.683 26.8667 379.267 25.8167 380.4 24.35C381.533 22.9167 382.1 21.25 382.1 19.35C382.1 16.3167 380.933 13.95 378.6 12.25ZM367.6 24.35H362.2V16.5H367.65C370.95 16.5 372.6 17.8 372.6 20.4C372.6 21.6 372.217 22.5334 371.45 23.2C370.583 23.9667 369.3 24.35 367.6 24.35ZM362.2 40.05V31H367.4C371.133 31 373 32.5 373 35.5C373 36.8667 372.567 37.9501 371.7 38.75C370.733 39.6167 369.283 40.05 367.35 40.05H362.2ZM414.8 12.3C412.267 10.4667 408.367 9.55005 403.1 9.55005H389.4V47H398.7V33.9501H402.35L409.55 47H420.5L411.25 32.1C413.483 31.3334 415.283 30.05 416.65 28.25C418.117 26.3167 418.85 24.0667 418.85 21.5C418.85 17.3 417.5 14.2334 414.8 12.3ZM402.8 16.6C404.9 16.6 406.5 17.0667 407.6 18C408.7 18.9334 409.25 20.2167 409.25 21.85C409.25 23.5167 408.7 24.8001 407.6 25.7001C406.5 26.6334 404.9 27.1 402.8 27.1H398.7V16.6H402.8ZM431.4 47L433.2 39.75H444.7L446.65 47H456.85L445.25 9.55005H433.25L421.7 47H431.4ZM438.8 17.2L442.9 33H434.85L438.8 17.2ZM463.9 47H473.2V16.7H483.15V9.55005H453.95V16.7H463.9V47ZM511.3 30.9V24.25H497.15V16.6H512.15V9.55005H487.85V47H512.15V39.9001H497.15V30.9H511.3Z" fill="white"/>
<path d="M540.2 12.15C539.233 11.3167 538.067 10.7 536.7 10.3C535.4 9.86672 533.933 9.65005 532.3 9.65005H521.4V47.1H525.7V31.15H529.2C529.867 31.15 530.583 31.2667 531.35 31.5C532.017 31.7334 532.6 32.0501 533.1 32.4501C533.533 32.7834 534.083 33.3334 534.75 34.1L542.45 47.1H547.55L539.35 33.7001C538.917 32.9667 538.517 32.4167 538.15 32.05C537.75 31.55 537.317 31.1334 536.85 30.8C536.55 30.5 536.033 30.1667 535.3 29.8V29.7001C536.367 29.4334 537.483 28.9834 538.65 28.35C539.75 27.65 540.583 26.9167 541.15 26.15C541.883 25.3167 542.433 24.35 542.8 23.25C543.2 22.15 543.4 20.95 543.4 19.65C543.4 18.0167 543.117 16.55 542.55 15.25C541.983 13.9834 541.2 12.95 540.2 12.15ZM525.7 13.65H531.55C533.95 13.65 535.767 14.2 537 15.3C538.267 16.4667 538.9 18.0334 538.9 20C538.9 21.0334 538.717 22.05 538.35 23.05C538.017 23.85 537.5 24.6 536.8 25.3C536.1 25.9334 535.317 26.4001 534.45 26.7001C533.583 27.0334 532.6 27.2001 531.5 27.2001H525.7V13.65ZM571.1 13.65V9.65005H552.6V47.1H571.9V43.1501H556.85V30H570.05V26.1H556.85V13.65H571.1ZM586.75 13.3C587.65 13.1 588.567 13 589.5 13C592.9 13 595.667 13.7667 597.8 15.3V10.35C596.267 9.48338 593.65 9.05005 589.95 9.05005C588.417 9.05005 586.867 9.25005 585.3 9.65005C583.8 10.05 582.45 10.65 581.25 11.45C580.017 12.3167 579.067 13.3667 578.4 14.6C577.667 15.8334 577.3 17.3167 577.3 19.05C577.3 20.4834 577.517 21.7 577.95 22.7C578.483 23.7667 579.133 24.6834 579.9 25.4501C580.633 26.1834 581.6 26.9334 582.8 27.7001C583.9 28.4001 585.083 29.0667 586.35 29.7001L589.7 31.5C590.7 32.0334 591.617 32.6334 592.45 33.3C593.217 33.9 593.8 34.5834 594.2 35.35C594.633 36.0167 594.85 36.8834 594.85 37.9501C594.85 39.85 594.2 41.3 592.9 42.3C591.6 43.3 589.65 43.8 587.05 43.8C586.383 43.8 585.55 43.7167 584.55 43.55C583.55 43.3834 582.65 43.1667 581.85 42.9001C580.95 42.6001 580.1 42.25 579.3 41.85C578.4 41.35 577.717 40.8667 577.25 40.4001V45.6C577.65 45.8667 578.267 46.1667 579.1 46.5C580.133 46.8334 580.983 47.0501 581.65 47.1501C582.583 47.3834 583.45 47.5167 584.25 47.55C585.017 47.6834 585.717 47.75 586.35 47.75C588.017 47.75 589.667 47.5667 591.3 47.2001C592.833 46.8667 594.217 46.2834 595.45 45.4501C596.65 44.6501 597.6 43.6167 598.3 42.35C599 41.05 599.35 39.4834 599.35 37.6501C599.35 36.2167 599.083 34.9834 598.55 33.9501C598.083 32.9167 597.383 31.9334 596.45 31C595.683 30.2001 594.667 29.3834 593.4 28.55L589.7 26.4501C588.8 26.0501 587.667 25.4667 586.3 24.7C585.3 24.1 584.467 23.55 583.8 23.05C583.2 22.4834 582.683 21.8334 582.25 21.1C581.917 20.3334 581.75 19.5167 581.75 18.65C581.75 17.65 581.983 16.7834 582.45 16.05C582.883 15.35 583.483 14.7667 584.25 14.3C584.983 13.8334 585.817 13.5 586.75 13.3ZM628.95 20.85C628.95 17.3167 627.867 14.5667 625.7 12.6C623.533 10.6334 620.517 9.65005 616.65 9.65005H606.65V47.1H610.9V32.9501H615.7C619.767 32.9501 622.983 31.8167 625.35 29.55C627.75 27.3167 628.95 24.4167 628.95 20.85ZM615.9 13.65C621.6 13.65 624.45 16.1167 624.45 21.05C624.45 23.5834 623.667 25.5334 622.1 26.9C620.6 28.3 618.367 29 615.4 29H610.9V13.65H615.9ZM663.3 14.25C660.267 10.7834 656.217 9.05005 651.15 9.05005C645.65 9.05005 641.333 10.8334 638.2 14.4C635 18 633.4 22.8 633.4 28.8C633.4 34.4667 634.967 39.0334 638.1 42.5C641.2 46 645.333 47.75 650.5 47.75C655.8 47.75 660.033 45.9667 663.2 42.4001C666.367 38.8334 667.95 34 667.95 27.9C667.95 22.3 666.4 17.75 663.3 14.25ZM650.85 13C654.783 13 657.867 14.35 660.1 17.05C662.333 19.7167 663.45 23.5334 663.45 28.5C663.45 33.3667 662.3 37.1167 660 39.75C657.7 42.4501 654.533 43.8 650.5 43.8C646.8 43.8 643.767 42.4 641.4 39.6C639.067 36.7667 637.9 33.0501 637.9 28.4501C637.9 23.85 639.1 20.1167 641.5 17.25C643.9 14.4167 647.017 13 650.85 13ZM704.5 9.65005H700.25V36.05C700.25 38.4834 700.333 40.3167 700.5 41.55H700.4C700.167 41.05 699.667 40.2167 698.9 39.05L680.65 9.65005H675.1V47.1H679.4V20.05C679.4 17.6834 679.333 15.9667 679.2 14.9H679.35C679.717 15.8667 680.1 16.65 680.5 17.25L699.3 47.1H704.5V9.65005ZM746.05 9.65005H741.8V47.1H746.05V9.65005ZM732.95 15.3V10.35C731.417 9.48338 728.8 9.05005 725.1 9.05005C723.567 9.05005 722.017 9.25005 720.45 9.65005C718.95 10.05 717.6 10.65 716.4 11.45C715.167 12.3167 714.217 13.3667 713.55 14.6C712.817 15.8334 712.45 17.3167 712.45 19.05C712.45 20.4834 712.667 21.7 713.1 22.7C713.633 23.7667 714.283 24.6834 715.05 25.4501C715.783 26.1834 716.75 26.9334 717.95 27.7001C719.05 28.4001 720.233 29.0667 721.5 29.7001L724.85 31.5C725.85 32.0334 726.767 32.6334 727.6 33.3C728.367 33.9 728.95 34.5834 729.35 35.35C729.783 36.0167 730 36.8834 730 37.9501C730 39.85 729.35 41.3 728.05 42.3C726.75 43.3 724.8 43.8 722.2 43.8C721.533 43.8 720.7 43.7167 719.7 43.55C718.7 43.3834 717.8 43.1667 717 42.9001C716.1 42.6001 715.25 42.25 714.45 41.85C713.55 41.35 712.867 40.8667 712.4 40.4001V45.6C712.8 45.8667 713.417 46.1667 714.25 46.5C715.283 46.8334 716.133 47.0501 716.8 47.1501C717.733 47.3834 718.6 47.5167 719.4 47.55C720.167 47.6834 720.867 47.75 721.5 47.75C723.167 47.75 724.817 47.5667 726.45 47.2001C727.983 46.8667 729.367 46.2834 730.6 45.4501C731.8 44.6501 732.75 43.6167 733.45 42.35C734.15 41.05 734.5 39.4834 734.5 37.6501C734.5 36.2167 734.233 34.9834 733.7 33.9501C733.233 32.9167 732.533 31.9334 731.6 31C730.833 30.2001 729.817 29.3834 728.55 28.55L724.85 26.4501C723.95 26.0501 722.817 25.4667 721.45 24.7C720.383 24.1 719.567 23.55 719 23.05C718.367 22.5167 717.833 21.8667 717.4 21.1C717.067 20.3334 716.9 19.5167 716.9 18.65C716.9 17.65 717.133 16.7834 717.6 16.05C718.033 15.35 718.633 14.7667 719.4 14.3C720.133 13.8334 720.967 13.5 721.9 13.3C722.8 13.1 723.733 13 724.7 13C728.067 13 730.817 13.7667 732.95 15.3ZM774.65 23.75C775.75 22.2167 776.3 20.3667 776.3 18.2C776.3 15.6334 775.383 13.5834 773.55 12.05C771.717 10.45 769.217 9.65005 766.05 9.65005H755.65V47.1H766.3C769.7 47.1 772.517 46.1 774.75 44.1C776.983 42.1667 778.1 39.5834 778.1 36.35C778.1 33.75 777.367 31.6667 775.9 30.1C774.467 28.4667 772.5 27.5 770 27.2001V27.1C771.933 26.4667 773.483 25.35 774.65 23.75ZM771.85 19.1C771.85 21.2 771.167 22.8334 769.8 24C768.533 25.1334 766.7 25.7001 764.3 25.7001H759.9V13.65H764.85C769.517 13.65 771.85 15.4667 771.85 19.1ZM759.9 43.1501V29.65H764.85C770.717 29.65 773.65 31.8667 773.65 36.3C773.65 38.4334 772.95 40.1 771.55 41.3C770.15 42.5334 768.2 43.1501 765.7 43.1501H759.9ZM818.7 47.1V33.25L830.7 9.65005H826.2L817.65 26.6C817.25 27.3 816.917 28.0667 816.65 28.9H816.6L815.7 26.6L807.55 9.65005H802.65L814.4 33.35V47.1H818.7ZM804.45 47.1V43.1501H789.8V9.65005H785.5V47.1H804.45Z" fill="white"/>
<path d="M83.8241 12.1663C84.2246 13.2372 84.7653 14.1739 85.446 14.9764C86.8866 17.2005 86.782 19.2029 85.1323 20.9839C84.397 22.2254 83.9565 23.467 83.8108 24.7085C80.9854 27.7546 78.5204 30.992 76.4158 34.4206C76.4662 34.9225 76.7242 35.4387 77.19 35.9692L83.7641 43.6053C82.8021 46.6402 83.6542 49.4103 86.3203 51.9157L86.674 53.6511H95.4439C94.9603 52.1259 95.0582 50.7954 95.7376 49.6595C100.279 47.6432 102.404 44.7485 102.111 40.9754C101.5 37.9807 99.5644 35.0838 96.3049 32.2846C99.2565 30.8157 98.8894 28.8087 95.2036 26.2638C90.8784 22.9604 89.7704 20.3171 91.8799 18.3339C92.6763 18.4708 93.5239 18.5575 94.4227 18.5943C94.881 18.5123 95.1613 17.9984 95.2637 17.0524C96.0938 16.5209 96.4387 15.78 96.2982 14.8296L97.0524 13.8283C95.8252 13.1571 95.5693 11.7977 96.2848 9.74995L96.8054 10.1972C96.9813 8.00581 96.0135 6.61074 93.9022 6.01198L91.2058 5.08415C87.8797 4.72445 85.5037 6.08392 84.0777 9.16256H81.635C80.1674 9.4024 79.2219 10.0743 78.7985 11.1784C78.4959 12.2197 78.5693 13.2476 79.0187 14.2622C79.437 15.2101 80.0243 16.02 80.7807 16.6919C81.4081 17.2482 81.8041 17.6976 81.9687 18.0402C83.045 19.488 82.431 20.7562 80.1266 21.845C80.6814 22.1061 81.3889 21.9771 82.249 21.4578C84.0396 19.9857 84.2799 18.2146 82.9698 16.1446C82.0527 15.1166 81.4854 13.9662 81.2679 12.6936C81.1032 11.7428 81.2745 11.0152 81.7818 10.5109C82.3959 9.95366 83.0388 10.0071 83.7107 10.6711L83.8241 12.1663ZM81.4147 34.4206L84.6784 31.1632C86.7893 33.5216 86.925 36.7923 85.0855 40.9754C83.0194 39.1107 81.7958 36.9257 81.4147 34.4206Z" fill="white"/>
<path d="M110.391 8.15062C104.825 2.71687 98.1421 0 90.3427 0C82.5099 0 75.8271 2.71687 70.2942 8.15062C64.728 13.5844 61.9448 20.1182 61.9448 27.7521C61.9448 35.4194 64.728 41.9699 70.2942 47.4036C75.8271 52.804 82.5099 55.5042 90.3427 55.5042C98.1421 55.5042 104.825 52.804 110.391 47.4036C115.924 41.9699 118.69 35.4194 118.69 27.7521C118.69 20.1182 115.924 13.5844 110.391 8.15062ZM114.891 27.7521C114.891 34.386 112.508 40.0364 107.741 44.7034C102.942 49.3704 97.1421 51.7039 90.3427 51.7039C83.5432 51.7039 77.7436 49.3704 72.944 44.7034C68.1777 40.0364 65.7945 34.386 65.7945 27.7521C65.7945 21.1516 68.1777 15.5179 72.944 10.8508C77.7436 6.15047 83.5432 3.80029 90.3427 3.80029C97.1421 3.80029 102.942 6.15047 107.741 10.8508C112.508 15.5179 114.891 21.1516 114.891 27.7521Z" fill="white"/>
<path d="M105.642 47.5536L107.941 44.5033L74.9939 8.90063L72.0941 11.4508L105.642 47.5536Z" fill="white"/>
<path d="M103.399 20.1497C103.456 19.7116 103.372 19.4256 103.148 19.2919C102.891 19.342 102.714 19.4156 102.617 19.5126C101.981 19.0444 101.331 18.8973 100.665 19.0712L98.2774 17.5261V17.3405L97.7607 17.1499L97.0284 18.088L97.2491 18.4642H97.4648L99.8174 20.5409C99.8843 21.0894 100.239 21.6362 100.881 22.1813L101.362 23.9169C101.265 26.4251 100.665 28.4316 99.5616 29.9365L93.7979 24.8851L96.311 33.6486C98.6486 34.4746 100.49 34.6402 101.834 34.1452L102.406 32.4296L103.294 25.8582L104.046 24.4788L106.394 26.0188L108.205 23.4103L105.095 21.1429L104.989 20.571C104.702 20.4707 104.509 20.5426 104.412 20.7867C104.506 20.4557 104.392 20.1597 104.071 19.8988C103.774 19.8119 103.55 19.8955 103.399 20.1497Z" fill="white"/>
<path d="M179.4 27.75C179.4 20.1167 176.633 13.5833 171.1 8.15C165.533 2.71667 158.85 0 151.05 0C143.217 0 136.533 2.71667 131 8.15C125.467 13.55 122.7 20.0833 122.7 27.75C122.7 35.4167 125.467 41.9667 131 47.4C136.533 52.8 143.217 55.5 151.05 55.5C158.85 55.5 165.533 52.8 171.1 47.4C176.633 41.9667 179.4 35.4167 179.4 27.75ZM175.6 27.75C175.6 34.3833 173.217 40.0333 168.45 44.7C163.65 49.3667 157.85 51.7 151.05 51.7C144.25 51.7 138.467 49.3667 133.7 44.7C128.9 40.0333 126.5 34.3833 126.5 27.75C126.5 21.15 128.9 15.5167 133.7 10.85C138.467 6.18333 144.25 3.85 151.05 3.85C157.85 3.85 163.65 6.18333 168.45 10.85C173.217 15.5167 175.6 21.15 175.6 27.75Z" fill="white"/>
<path d="M146.55 23.2C146.55 21.5 146.067 20.1166 145.1 19.05C144.033 17.9166 142.533 17.35 140.6 17.35C138.433 17.35 136.5 18.2166 134.8 19.95L136 22.25C137.3 20.75 138.717 20 140.25 20C141.25 20 142.05 20.3166 142.65 20.95C143.217 21.5833 143.5 22.4166 143.5 23.45C143.5 24.55 143 25.6 142 26.6C141.967 26.6333 140.9 27.5 138.8 29.2C135.767 31.6666 134.4 34.6666 134.7 38.2H146.05L147.25 35.45H137.55C137.75 33.9833 139.333 32.1 142.3 29.8C145.133 27.6 146.55 25.4 146.55 23.2ZM149.45 23H153V38.2H155.95V17.55H153.8C153.6 18.85 153.217 19.7 152.65 20.1C152.083 20.5333 151.017 20.7333 149.45 20.7V23Z" fill="white"/>
<path d="M165.9 22.7H164.15V27H160.4V28.9H164.15V33.2H165.9V28.9H169.65V27H165.9V22.7Z" fill="white"/>
<path d="M48.45 8.15C42.8833 2.71667 36.2 0 28.4 0C20.5667 0 13.8833 2.71667 8.35001 8.15C2.78334 13.5833 0 20.1167 0 27.75C0 35.4167 2.78334 41.9667 8.35001 47.4C13.8833 52.8 20.5667 55.5 28.4 55.5C36.2 55.5 42.8833 52.8 48.45 47.4C53.9833 41.9667 56.75 35.4167 56.75 27.75C56.75 20.1167 53.9833 13.5833 48.45 8.15ZM52.95 27.75C52.95 34.3833 50.5667 40.0333 45.8 44.7C41 49.3667 35.2 51.7 28.4 51.7C21.6 51.7 15.8 49.3667 11 44.7C6.23333 40.0333 3.85001 34.3833 3.85001 27.75C3.85001 21.15 6.23333 15.5167 11 10.85C15.8 6.15 21.6 3.8 28.4 3.8C35.2 3.8 41 6.15 45.8 10.85C50.5667 15.5167 52.95 21.15 52.95 27.75Z" fill="white"/>
<path d="M39.4 15.75L39.25 15.9H17.5L17.35 15.75L17.3 15.9H16.2V17.9L13.65 22.55H10V25.25H12.2L10.2 28.95H9.40002V39.75H16.9V38.35H39.85V39.75H47.4V28.95H46.6L44.55 25.25H46.75V22.55H43.1L40.55 17.9V15.9H39.45L39.4 15.75ZM37.75 18.15L40.85 23.9H15.9L19 18.15H37.75ZM18.4 28.95L18.45 32.6L13.15 32.65V28.95H18.4ZM16.9 35.75V34.35H19.65V35.75H16.9ZM37.1 35.75V34.35H39.85V35.75H37.1ZM38.35 32.6L38.4 28.95H43.6V32.65L38.35 32.6Z" fill="white"/>
<path d="M43.7 47.55L46 44.5L13.05 8.90002L10.15 11.45L43.7 47.55Z" fill="white"/>
</g>
<defs>
<clipPath id="clip0_3984_1695">
<rect width="830" height="55" fill="white"/>
</clipPath>
</defs>
</svg>
